<svg width="40" height="40" viewBox="0 0 40 40" fill="none" xmlns="http://www.w3.org/2000/svg">
<circle opacity="0.2" cx="20" cy="20" r="19.5" stroke="white"/>
<path fill-rule="evenodd" clip-rule="evenodd" d="M17.7093 15.0002C15.6932 15.0002 14.0465 16.5858 14.0465 18.5563C14.0465 20.5774 15.1497 23.7669 19.6216 25.7712C19.9066 25.8989 19.9977 25.9379 20.1586 25.9721C20.3317 26.009 20.6683 26.009 20.8414 25.9721C21.0023 25.9379 21.0934 25.8989 21.3784 25.7712C25.8503 23.7669 26.9535 20.5774 26.9535 18.5563C26.9535 16.5858 25.3068 15.0002 23.2907 15.0002C22.3544 15.0002 21.5004 15.3407 20.8516 15.9033C20.6522 16.0763 20.3478 16.0763 20.1484 15.9033C19.4996 15.3407 18.6456 15.0002 17.7093 15.0002ZM13 18.5563C13 16.0464 15.1017 14 17.7093 14C18.7541 14 19.7196 14.3296 20.5 14.8859C21.2804 14.3296 22.2459 14 23.2907 14C25.8983 14 28 16.0464 28 18.5563C28 20.9397 26.6857 24.4971 21.8227 26.6767L21.8017 26.6862C21.5373 26.8047 21.3504 26.8885 21.069 26.9484C20.746 27.0172 20.254 27.0172 19.931 26.9484C19.6496 26.8885 19.4627 26.8047 19.1983 26.6862L19.1773 26.6767C14.3142 24.4971 13 20.9397 13 18.5563Z" fill="white"/>
</svg>
