<svg width="40" height="40" viewBox="0 0 40 40" fill="none" xmlns="http://www.w3.org/2000/svg">
<circle opacity="0.2" cx="20" cy="20" r="19.5" stroke="white"/>
<path fill-rule="evenodd" clip-rule="evenodd" d="M19.9213 13C19.365 12.9998 18.9854 12.9997 18.6599 13.0873C17.7798 13.3241 17.0924 14.0144 16.8566 14.8982C16.794 15.133 16.7764 15.3959 16.7715 15.7324C16.2199 15.7362 15.8088 15.7595 15.4484 15.8955C14.87 16.1139 14.3902 16.5357 14.0982 17.0827C13.8784 17.4944 13.8113 18.0016 13.7135 18.7404L13.1533 22.9601C13.0847 23.4767 13.0296 23.8915 13.0091 24.2294C12.988 24.5752 12.9995 24.8837 13.0884 25.1794C13.3009 25.8861 13.8068 26.4663 14.4762 26.7713C14.7564 26.8989 15.0594 26.9511 15.4035 26.9758C15.7397 27 16.1564 27 16.6754 27H23.3246C23.8435 27 24.2603 27 24.5965 26.9758C24.9406 26.9511 25.2436 26.8989 25.5238 26.7713C26.1932 26.4663 26.6991 25.8861 26.9116 25.1794C27.0005 24.8837 27.012 24.5752 26.9909 24.2294C26.9704 23.8915 26.9153 23.4767 26.8467 22.9601L26.2865 18.7404C26.1887 18.0016 26.1216 17.4944 25.9018 17.0827C25.6098 16.5357 25.13 16.1139 24.5516 15.8955C24.1912 15.7595 23.7801 15.7362 23.2285 15.7324C23.2236 15.3959 23.206 15.133 23.1434 14.8982C22.9076 14.0144 22.2201 13.3241 21.3401 13.0873C21.0146 12.9997 20.635 12.9998 20.0787 13H19.9213ZM22.2102 16.7561V18.2927C22.2102 18.5756 22.4385 18.8049 22.7202 18.8049C23.0019 18.8049 23.2303 18.5756 23.2303 18.2927V16.7577C23.7682 16.7627 24.0019 16.7824 24.1926 16.8544C24.5397 16.9854 24.8276 17.2385 25.0028 17.5667C25.1233 17.7925 25.1718 18.0962 25.289 18.9786L25.833 23.0762C25.9048 23.6165 25.9547 23.995 25.9728 24.2918C25.9906 24.585 25.9737 24.7549 25.9351 24.8833C25.8076 25.3073 25.5041 25.6554 25.1024 25.8384C24.9808 25.8938 24.8153 25.9331 24.5236 25.9541C24.2282 25.9753 23.848 25.9756 23.3052 25.9756H16.6948C16.152 25.9756 15.7718 25.9753 15.4764 25.9541C15.1847 25.9331 15.0192 25.8938 14.8976 25.8384C14.4959 25.6554 14.1924 25.3073 14.0649 24.8833C14.0263 24.7549 14.0094 24.585 14.0272 24.2918C14.0453 23.995 14.0952 23.6165 14.167 23.0762L14.711 18.9786C14.8282 18.0962 14.8767 17.7925 14.9972 17.5667C15.1724 17.2385 15.4603 16.9854 15.8074 16.8544C15.9981 16.7824 16.2318 16.7627 16.7697 16.7577V18.2927C16.7697 18.5756 16.9981 18.8049 17.2798 18.8049C17.5615 18.8049 17.7898 18.5756 17.7898 18.2927V16.7561H22.2102ZM22.2077 15.7317C22.2032 15.4347 22.1908 15.2861 22.158 15.1633C22.0166 14.633 21.6041 14.2189 21.0761 14.0768C20.8978 14.0288 20.6653 14.0244 20 14.0244C19.3347 14.0244 19.1022 14.0288 18.9239 14.0768C18.3959 14.2189 17.9834 14.633 17.842 15.1633C17.8092 15.2861 17.7968 15.4347 17.7923 15.7317H22.2077Z" fill="white"/>
</svg>
