<svg width="40" height="40" viewBox="0 0 40 40" fill="none" xmlns="http://www.w3.org/2000/svg">
<circle opacity="0.2" cx="20" cy="20" r="19.5" stroke="white"/>
<path fill-rule="evenodd" clip-rule="evenodd" d="M19.9129 13.0814C18.2208 13.0814 16.849 14.4532 16.849 16.1454C16.849 17.8375 18.2208 19.2093 19.9129 19.2093C21.6051 19.2093 22.9769 17.8375 22.9769 16.1454C22.9769 14.4532 21.6051 13.0814 19.9129 13.0814ZM15.7676 16.1454C15.7676 13.8559 17.6235 12 19.9129 12C22.2023 12 24.0583 13.8559 24.0583 16.1454C24.0583 18.4348 22.2023 20.2907 19.9129 20.2907C17.6235 20.2907 15.7676 18.4348 15.7676 16.1454Z" fill="white"/>
<path fill-rule="evenodd" clip-rule="evenodd" d="M17.2236 21.3721C17.2326 21.3721 17.2417 21.3721 17.251 21.3721L22.6018 21.3721C22.8041 21.372 22.9431 21.372 23.0744 21.3848C23.9634 21.4715 24.7522 21.9916 25.182 22.7746C25.2455 22.8902 25.3003 23.018 25.3799 23.2039L25.3907 23.2291C25.3992 23.2489 25.4075 23.2684 25.4158 23.2876C25.5822 23.6758 25.6937 23.9357 25.747 24.1532C26.1214 25.6816 25.1165 27.2055 23.5642 27.4634C23.3433 27.5001 23.0605 27.5001 22.638 27.5C22.6172 27.5 22.596 27.5 22.5745 27.5H17.2509C17.2294 27.5 17.2082 27.5 17.1874 27.5C16.7649 27.5001 16.4822 27.5001 16.2612 27.4634C14.7089 27.2055 13.704 25.6816 14.0784 24.1532C14.1317 23.9357 14.2432 23.6758 14.4097 23.2875C14.4179 23.2684 14.4262 23.2489 14.4347 23.2291C14.4384 23.2206 14.442 23.2122 14.4455 23.2039C14.5252 23.018 14.5799 22.8902 14.6434 22.7746C15.0732 21.9916 15.862 21.4715 16.751 21.3848C16.8823 21.372 17.0213 21.372 17.2236 21.3721ZM17.251 22.4535C17.0111 22.4535 16.9281 22.4541 16.8559 22.4611C16.3225 22.5131 15.8492 22.8252 15.5913 23.295C15.5564 23.3586 15.5232 23.4346 15.4287 23.6551C15.2282 24.1228 15.1578 24.2922 15.1288 24.4105C14.9041 25.3275 15.5071 26.2419 16.4384 26.3967C16.5586 26.4166 16.7421 26.4186 17.2509 26.4186H22.5745C23.0833 26.4186 23.2668 26.4166 23.387 26.3967C24.3184 26.2419 24.9213 25.3275 24.6966 24.4105C24.6676 24.2922 24.5972 24.1228 24.3967 23.6551C24.3022 23.4346 24.269 23.3586 24.2341 23.295C23.9762 22.8252 23.5029 22.5131 22.9695 22.4611C22.8973 22.4541 22.8143 22.4535 22.5745 22.4535H17.251Z" fill="white"/>
</svg>
